<svg xmlns="http://www.w3.org/2000/svg" pointer-events="none" class="leaflet-zoom-animated" width="1454" height="884" viewBox="-121 -74 1454 884" style="transform: translate3d(-121px, -74px, 0px);"><g><path class="leaflet-interactive" stroke="#201920" stroke-opacity="1" stroke-width="2" stroke-linecap="round" stroke-linejoin="round" fill="none" d="M363 326L363 322L362 323L360 319L364 317L363 314L366 311L367 312L370 309L372 309L372 307L375 308L377 306L378 309L384 309L389 301L394 302L397 299L398 300L398 298L404 296L407 293L414 291L414 284L417 281L416 280L419 279L419 275L416 268L416 262L412 260L412 258L425 254L433 256L434 255L431 252L431 250L437 232L444 235L453 236L457 234L459 232L457 221L461 217L463 218L466 216L468 212L467 211L469 209L475 209L477 216L482 218L484 222L490 222L491 225L494 224L494 226L497 228L499 235L501 235L502 238L502 241L500 243L501 246L499 249L500 256L501 255L504 257L505 256L511 258L521 258L532 266L537 266L536 269L538 269L539 274L545 283L551 282L570 285L586 285L593 290L594 289L599 292L609 293L610 295L614 296L617 293L634 286L644 287L655 284L663 276L667 275L670 272L666 266L667 261L670 257L683 261L687 259L692 253L699 253L705 248L704 247L709 242L713 242L714 239L718 240L720 238L725 237L727 239L734 238L733 233L723 223L718 222L714 226L705 224L702 227L699 224L699 222L701 220L708 200L716 204L723 199L729 197L730 194L728 194L728 192L733 185L735 177L738 174L740 174L741 171L740 166L738 164L735 165L735 163L743 155L744 156L760 152L764 152L768 155L769 154L771 157L774 158L780 158L780 161L782 161L783 165L786 167L785 170L787 171L786 172L789 177L788 178L790 179L790 185L793 188L794 195L796 195L795 200L798 204L805 203L805 205L811 205L811 207L813 207L817 212L821 212L819 215L822 219L820 221L824 227L835 226L840 221L842 222L849 218L856 218L853 219L852 224L854 226L848 232L849 233L846 240L847 243L840 256L837 257L830 254L828 256L829 257L823 259L826 269L826 275L824 281L819 283L820 286L817 283L817 281L814 280L813 285L811 287L810 286L807 291L799 291L802 296L800 298L793 297L791 295L792 294L790 294L791 293L788 294L783 303L776 306L770 311M403 393L400 390L400 388L403 385L405 389L407 387L407 383L402 377L402 373L405 370L399 366L397 358L392 359L385 356L385 354L382 355L380 352L381 349L378 346L376 346L376 344L368 342L370 340L372 341M629 483L627 483L628 480L626 480L628 476L626 474L621 475L617 471L615 471L613 475L608 475L605 478L603 476L601 476L598 479L595 476L593 476L592 479L587 478L587 490L583 489L583 485L575 487L575 485L573 485L572 482L568 482L568 476L570 474L565 472L565 468L563 466L565 464L559 464L555 466L554 465L556 463L554 461L556 457L555 456L563 448L562 447L564 443L564 435L561 432L561 434L559 432L559 428L555 426L555 424L553 426L554 427L552 427L553 430L550 432L543 427L539 427L536 428L536 430L533 432L528 433L522 439L518 440L510 440L510 434L506 434L505 429L500 430L491 427L487 431L485 436L483 434L484 429L482 428L480 430L475 431L471 431L466 428L464 430L462 428L462 430L458 426L455 427L454 423L451 424L446 419L446 417L442 419L437 414L435 414L435 412L434 413L433 411L431 411L430 408L425 407L423 411L409 401L406 402L403 399L403 393M638 487L633 486L629 483M641 616L640 607M649 532L652 536L653 541M657 565L655 573M669 637L677 634M699 606L704 600M723 576L726 567M727 534L727 543M735 509L730 517M750 485L744 493M755 470L757 460" id="国界"/><path class="leaflet-interactive" stroke="#201920" stroke-opacity="1" stroke-width="2" stroke-linecap="butt" stroke-linejoin="round" stroke-dasharray="4,4" stroke-dashoffset="4" fill="none" d="M372 341L374 339L372 337L372 329L370 327L367 326L365 328L363 326" id="争议"/><path class="leaflet-interactive" stroke="gray" stroke-opacity="1" stroke-width="1" stroke-linecap="round" stroke-linejoin="round" stroke-dasharray="8,4,4,4" fill="none" d="M683 481L683 481M688 478L686 478L685 481L690 481L690 479L688 478" id="港澳"/><path class="leaflet-interactive" stroke="#4190da" stroke-opacity="1" stroke-width="1" stroke-linecap="round" stroke-linejoin="round" fill="none" d="M687 480L687 478L685 479L684 476L683 481L681 483L680 482L680 484L677 483L675 485L672 484L670 486L660 488L656 491L656 493L659 496L657 498L653 498L651 492L653 488L651 486L649 488L647 488L647 486L638 487M657 490L657 490M657 490L657 492L657 490M683 481L683 481M687 480L687 480M687 480L687 480M687 480L687 480M734 441L731 442L733 442L734 445L731 446L732 449L730 451L734 451L732 453L729 452L729 454L727 454L728 455L727 456L727 454L725 458L724 457L725 458L723 461L720 460L720 462L714 469L710 469L706 475L700 475L698 477L696 475L693 478L691 476L691 478L690 479L690 477L688 479L690 479L687 480M734 441L734 441M749 419L747 423L748 426L745 429L744 428L743 431L742 430L734 443L733 442L735 440L734 441M747 345L745 347L741 347L742 350L741 349L740 352L737 353L737 351L737 353L728 364L738 372L742 382L742 386L747 390L746 391L750 393L750 395L745 393L743 395L745 397M745 397L751 402L750 403L752 405L748 403L743 406L746 407L750 412L752 412L749 414L751 415L750 419M747 345L747 345M747 345L747 345M753 319L750 323L746 325L743 324L748 321L748 319L747 320L744 317L746 317L746 315L753 308L752 305L751 306L749 304L744 303L739 308L739 310L732 313L729 316L729 318L723 322L723 324L720 323L720 321L718 321L716 325L716 329L718 329L718 331L725 332L728 335L729 334L729 336L726 337L726 339L729 342L733 342L733 340L737 337L736 336L740 335L746 337L746 339L752 338L756 340L753 345L747 345M747 345L747 345M749 419L749 419M749 419L749 419M749 419L749 419M750 419L749 419M750 419L750 419M752 411L752 411M752 411L752 411M752 411L752 411M753 411L752 411M752 411L750 409L752 409L753 411M753 411L753 411M753 409L754 408L753 409M753 409L753 409M753 319L753 319M770 311L768 315L762 315L753 319M754 404L754 404M754 404L754 404M756 403L756 403M645 486L645 486M647 491L647 491M650 501L650 501M650 605L651 603L654 604L653 603L650 605M651 516L643 512L643 506L648 501L660 498L663 502L660 505L658 511L652 514L651 516M654 601L655 600L654 601M657 494L657 494M658 490L658 490M658 601L658 601M658 599L659 598L658 599M659 491L659 489L659 491M659 497L659 497M659 599L659 599M659 492L659 492M664 535L664 535M666 525L667 524L666 525M666 595L666 595M666 530L666 530M666 589L666 589M667 603L667 603M667 601L667 601M667 530L667 530M667 529L667 529M667 600L668 601L667 600M667 532L667 532M667 594L668 595L667 594M667 529L667 529M668 602L668 602M668 529L668 529M668 532L669 531L668 532M668 530L669 529L668 530M668 533L668 533M670 599L670 599M670 531L670 531M670 633L670 633M672 593L672 593M672 593L672 593M672 633L672 633M672 527L672 527M672 536L672 536M672 525L673 526L672 525M672 592L673 593L672 592M672 632L672 632M673 592L673 592M673 619L673 619M673 526L673 526M673 527L673 527M674 531L673 532L674 531M674 486L674 486M674 618L674 618M674 534L675 533L674 534M674 530L675 529L674 530M674 587L674 587M674 619L675 618L674 619M674 617L675 618L674 617M675 593L675 593M675 616L675 616M675 623L675 623M675 486L675 486M675 619L675 619M675 621L675 621M675 530L676 531L675 530M675 623L675 623M676 485L675 486L676 485M676 531L676 531M676 528L676 528M677 486L676 485L677 486M677 592L677 592M677 486L677 486M677 527L677 527M677 601L677 601M677 587L677 587M677 587L677 587M678 624L678 624M678 596L678 596M678 504L678 504M678 586L678 586M678 484L678 484M679 483L679 483M679 484L679 484M680 483L680 483M680 613L680 613M680 599L680 599M680 599L681 598L680 599M683 481L683 481M683 581L683 581M683 608L683 608M683 592L684 591L683 592M684 590L684 590M684 483L684 483M684 537L684 537M684 483L684 483M684 483L684 483M684 483L684 483M684 603L685 602L684 603M685 605L685 605M685 479L685 479M685 482L685 482M685 507L685 507M685 481L687 481L685 481M685 583L685 583M685 538L685 538M685 536L686 537L685 536M685 600L686 599L685 600M685 603L690 600L691 601L689 603L685 603M686 592L685 593L686 592M686 535L686 535M686 593L686 593M686 592L687 593L686 592M686 539L686 539M687 583L687 583M687 576L687 576M687 599L687 599M687 534L687 534M687 481L687 481M688 483L688 483M688 588L688 588M688 480L688 480M688 483L688 483M688 593L688 593M688 533L688 533M688 482L688 482M688 538L688 538M688 581L688 581M688 585L688 585M688 481L688 481M688 537L689 538L688 537M689 586L689 586M689 572L689 572M689 478L689 478M689 575L689 575M689 480L689 480M689 582L689 582M689 577L689 577M689 571L689 571M690 533L690 533M690 584L690 584M690 537L690 537M690 585L690 585M690 576L690 576M690 577L690 577M690 584L690 584M690 599L691 598L690 599M691 584L691 584M691 584L691 584M691 572L691 572M691 584L691 584M691 593L692 592L691 593M691 537L691 537M691 584L692 583L691 584M691 572L692 571L691 572M691 479L691 479M692 603L692 603M692 598L692 598M692 580L692 580M692 571L692 571M692 575L693 574L692 575M692 532L692 532M692 585L692 585M693 598L693 598M693 574L693 574M693 535L693 535M693 577L693 577M693 606L693 606M693 600L693 600M694 576L694 576M694 533L694 533M694 604L694 604M694 574L694 574M696 596L697 597L696 596M696 595L697 596L696 595M697 582L697 582M697 551L697 551M698 588L698 588M698 584L698 584M698 596L699 595L698 596M700 579L700 579M700 579L700 579M700 579L700 579M700 580L701 579L700 580M701 579L701 579M701 586L702 585L701 586M701 576L701 576M702 491L702 491M702 490L703 491L702 490M702 589L702 589M703 583L703 583M704 587L704 587M705 592L705 592M706 585L706 585M706 590L706 590M706 585L706 585M706 580L708 580L706 580M707 585L707 585M708 579L708 579M708 531L708 531M708 571L709 572L708 571M708 494L708 494M708 591L708 591M709 493L709 495L709 493M709 579L709 579M712 470L710 470L712 470M712 578L712 578M712 577L712 577M713 581L713 581M713 578L714 577L713 578M713 574L713 574M713 583L713 583M714 575L714 575M716 578L716 578M716 575L716 575M716 541L717 540L716 541M717 577L717 577M719 461L719 461M720 461L719 460L720 461M720 462L721 461L720 462M722 461L721 462L722 461M724 322L724 322M725 321L725 321M725 321L726 322L725 321M730 472L730 472M730 455L731 454L730 455M731 471L731 471M731 468L731 468M731 468L731 468M731 451L731 451M732 446L732 446M732 469L731 470L732 469M732 450L732 450M732 451L732 451M732 442L733 441L732 442M732 453L732 453M732 453L732 453M733 442L733 442M734 451L734 451M734 446L734 446M734 448L734 448M735 470L735 470M735 445L734 446L735 445M735 443L735 443M736 443L736 443M736 442L736 442M736 440L736 440M736 356L736 356M737 439L737 439M737 480L737 480M737 439L737 439M738 336L738 336M739 444L739 444M740 334L739 333L740 334M740 483L736 476L735 469L741 459L746 454L748 454L750 456L750 461L746 473L742 478L742 484L740 483M740 333L740 333M740 334L740 334M741 332L741 332M741 307L741 307M741 330L741 330M742 329L742 329M742 330L742 330M743 349L743 349M743 430L743 430M743 434L743 434M743 430L744 429L743 430M744 430L745 429L744 430M746 394L751 397L750 398L744 394L746 394M746 387L746 387M746 477L746 477M747 482L747 482M748 483L748 483M748 397L748 397M748 419L748 419M749 423L749 423M749 399L747 398L749 399M749 398L751 399L749 398M749 410L749 410M749 422L749 422M749 423L750 422L749 423M750 425L750 425M750 410L749 411L750 410M750 399L750 399M750 425L750 425M750 452L750 452M750 458L750 458M750 410L750 410M750 400L751 399L750 400M750 408L750 408M751 419L751 419M751 413L751 413M751 411L751 411M751 409L751 409M751 405L751 405M751 411L751 411M751 411L751 411M752 411L752 411M752 411L752 411M752 409L752 409M752 408L753 409L752 408M752 409L752 409M752 416L752 416M752 414L751 413L752 414M752 414L752 414M752 411L753 412L752 411M753 412L753 412M753 412L753 412M753 414L752 413L753 414M753 412L754 411L754 413L753 412M754 321L754 321M754 411L754 411M754 407L754 407M755 407L755 407M755 321L755 321M755 320L755 320M755 405L755 405M756 321L757 320L756 321M757 410L757 410M757 323L756 322L757 323M757 404L757 404M757 404L757 404M759 317L758 318L759 317M759 318L759 318M760 323L760 323M761 450L763 450L761 450M763 449L763 449M764 448L765 449L764 448M764 451L764 451M764 450L764 450M764 451L764 451M764 315L764 315M771 448L770 449L771 448" id="海洋"/><path class="leaflet-interactive" stroke="#747569" stroke-opacity="0.6" stroke-width="1" stroke-linecap="round" stroke-linejoin="round" fill="none" d="M491 352L482 349L472 349L464 351L461 356L453 356L446 360L437 359L436 356L432 356L432 358L430 358L428 361L416 359L416 361L414 363L413 362L412 367L410 369L409 368L405 370M555 387L553 387L553 389L550 392L548 392L547 395L544 393L543 396L541 394L538 395L536 393L537 390L536 391L534 389L536 389L534 389L531 386L525 388L520 387L518 385L511 385L506 382L500 382L496 380L490 372L492 372L492 364L490 364L489 361L492 355L488 353L491 352M513 323L506 324L504 326L498 326L497 328L494 329L495 331L497 331L497 336L499 336L504 343L502 343L499 346L499 348L502 349L500 353L494 351L492 353L491 352M588 377L587 378L586 376L584 376L580 372L580 370L581 369L590 372L590 370L592 370L589 367L589 365L593 361L592 360L596 358L595 355L597 355L598 353L596 347L593 344L595 342L589 336L588 337L584 335L575 328L575 330L573 330L565 322L560 323L558 325L553 321L549 321L550 326L547 329L547 331L545 330L543 332L539 329L530 330L528 325L524 326L524 324L519 324L518 321L513 323M545 283L541 286L543 289L541 293L536 295L533 294L525 301L523 305L517 306L515 316L512 320L513 323M608 339L601 335L601 329L605 327L608 322L606 320L607 319L604 318L598 322L594 320L588 322L590 324L588 326L581 323L580 319L570 314L576 306L575 303L567 303L567 305L566 304L563 306L563 304L560 306L560 303L557 301L555 297L556 295L551 282M567 418L565 404L562 399L565 398L561 394L559 388L555 387M588 377L587 382L583 380L584 385L578 387L576 385L575 386L573 382L572 385L565 382L561 372L557 371L555 372L555 374L553 374L553 376L556 379L553 382L554 383L552 383L555 387M559 428L559 426L563 428L563 420L565 422L565 418L567 418M616 432L615 429L611 431L609 429L609 423L605 423L605 426L601 428L602 431L597 436L598 443L595 446L595 444L588 447L588 445L586 445L586 441L580 433L581 432L579 430L577 432L574 429L574 424L571 422L569 424L569 428L567 426L567 418M618 383L617 386L611 386L608 383L609 380L607 376L600 375L597 370L591 374L594 377L589 382L588 377M635 335L632 332L626 330L630 323L628 319L624 320L624 322L623 321L621 325L621 333L619 336L608 339M608 339L610 339L617 346L616 347L618 351L618 356L620 356L620 358L622 358L625 361L625 357L630 354L630 352L626 350L626 344L628 342L632 342M616 432L616 434L612 436L608 436L605 434L603 438L604 443L610 441L611 442L608 451L611 454L613 454L610 459M610 459L610 461L614 461L616 465L621 464L623 466L622 470L621 469L618 472M650 447L649 450L646 449L645 450L647 450L647 452L644 451L643 454L639 452L640 453L636 455L633 454L632 451L622 459L615 456L611 460L610 459M625 425L623 423L619 425L619 427L620 426L624 428L625 430L623 432L616 432M632 342L632 344L639 348L640 347L643 350L643 359L641 361L636 360L636 364L626 362L627 365L625 367L628 370L626 370L627 377L621 377L620 380L622 381L619 384L618 383M642 390L636 390L635 388L633 388L634 387L632 388L630 386L631 385L624 386L622 384L619 385L618 383M648 425L647 428L645 428L641 420L637 420L635 418L633 418L633 422L630 421L628 425L626 425L626 423L625 425M625 425L624 421L620 421L620 419L616 415L620 411L618 409L622 407L624 409L627 408L627 410L630 411L633 408L633 404L638 403L638 399L642 396L640 392L642 390M632 342L632 338L635 335M663 319L663 317L660 320L657 320L655 318L656 319L654 321L653 320L654 321L647 328L647 333L645 333L643 337L635 335M642 390L651 395M651 395L656 400L656 402L650 406L641 406L641 408L643 409L641 413L643 413L646 416L645 417L647 416L648 419M648 419L648 425M686 420L684 420L683 413L679 416L678 413L673 416L669 412L665 412L663 410L659 410L659 414L652 413L652 415L651 414L648 419M650 447L650 445L648 445L650 437L645 438L645 436L647 436L646 435L650 433L648 425M670 459L669 458L666 460L666 456L662 456L666 449L664 449L663 444L659 444L656 448L654 446L652 448L650 447M662 380L660 382L658 380L650 380L652 384L653 383L656 386L652 386L650 388L651 395M652 487L652 488M652 487L656 483L657 484L657 482L660 481L660 479L663 476L665 476L665 470L671 462L670 459M653 499L654 499M655 499L657 498M657 367L656 364L659 357L657 343L661 337L658 334L658 332L661 329L662 324L664 322L663 319M657 367L662 380M657 367L667 365L670 362L671 363L671 361L677 361L683 357L684 350M658 498L659 497M697 398L695 396L692 397L691 394L686 395L684 391L685 390L683 388L681 390L679 388L672 389L668 387L662 380M662 381L662 381M687 305L687 307L677 309L677 311L674 309L669 317L666 316L666 318L663 319M670 459L672 455L676 455L676 457L678 457L679 454L677 454L679 452L683 454L686 452M698 352L695 351L694 353L684 350M684 350L682 346L684 346L684 344L685 345L684 342L687 339L687 335L685 331L683 331L683 327L685 325L684 323L689 322L691 318L690 315L686 313L686 311L687 312L687 310L690 309L687 305M704 413L702 414L698 412L698 414L696 414L693 417L689 417L686 420M686 452L686 448L688 446L686 446L687 443L685 441L685 436L683 434L683 432L688 427L688 423L686 420M686 452L686 454L692 454L692 456L690 456L688 460L690 461L697 458L701 460L700 459L702 457M728 299L721 298L721 290L720 291L718 289L719 288L717 284L711 286L707 292L706 291L703 294L701 292L697 294L697 296L693 296L694 292L690 290L688 296L685 297L687 305M704 367L704 369L707 370L708 373L705 376L701 372L699 374L700 377L698 377L697 380L693 382L696 385L696 387L702 387L702 393L699 394L697 398M704 413L701 407L701 403L703 401L697 398M718 330L713 335L709 335L706 338L705 337L704 340L702 340L702 342L697 347L698 352M704 367L698 367L698 365L696 365L696 363L695 364L693 362L701 354L703 354L703 352L697 356L698 352M702 457L701 454L708 443L707 440L711 438L712 435L710 433L713 432L713 430L716 431L722 427M712 469L709 460L707 460L705 458L706 457L702 457M720 417L720 415L716 415L713 412L711 412L712 413L709 415L708 414L710 412L708 410L704 413M705 367L704 367M729 363L725 363L725 365L722 366L721 369L718 366L716 368L713 367L713 369L709 363L706 364L705 367M732 400L731 401L729 399L725 399L724 398L726 396L724 396L724 394L723 395L721 393L723 391L722 390L724 390L723 387L727 387L728 384L725 383L725 385L721 385L721 383L718 380L720 376L716 376L717 375L714 372L705 367M714 310L712 308L715 305L711 305L707 301L705 303L706 304L700 307L702 309L698 313L698 315L701 318L705 318L707 316L709 317M716 327L713 328L708 325L710 321L709 317M710 316L709 317M710 316L712 316L712 312M712 312L709 313L710 316M712 469L713 470M714 310L712 312M713 471L714 471M714 310L717 313L715 313L715 315L719 321M720 417L726 411L725 410L730 407L728 405L731 404L732 400M720 417L719 420L722 423L722 427M738 437L737 434L733 436L731 432L728 435L725 434L725 427L722 427M728 299L730 297L730 287L735 292L735 294L741 288L742 289L745 286L749 286L751 283L759 283L762 280L764 280L764 276M733 313L733 310L730 307L728 307L728 305L725 304L728 299M742 401L739 404L732 400M740 438L741 438M741 329L743 329M750 396L745 393L744 399L742 401M745 405L742 401M746 405L747 405M762 235L762 237L761 236L759 238L754 231L755 228L769 216L771 222L773 210L777 208L776 200L783 185L777 177L774 179L774 181L759 182L756 173L757 170L753 166L750 169L748 169L748 167L745 165L749 159L747 155M747 405L748 404M749 404L750 404M751 403L752 403M754 403L755 403M756 402L757 402M826 275L821 275L817 269L815 271L815 269L812 271L811 270L809 274L807 274L803 268L802 263L799 266L800 267L797 268L794 262L791 263L792 258L790 256L782 256L780 252L771 253L767 249L767 243L760 244M760 244L759 240L764 238L764 236L763 237L762 235M760 244L757 246L757 250L754 247L751 248L749 246L748 249L751 251L753 255L751 258L753 266L758 265L760 263L763 272L763 274L761 274L764 276M762 235L762 235M762 235L762 235M762 235L762 235M764 276L765 275L770 280L770 282L773 279L774 280L776 288L778 290L779 289L777 291L777 295L779 295L778 296L781 299L779 303L781 303M621 359L622 358L621 359M650 441L651 440L650 441M678 413L678 413" id="省界"/><path class="leaflet-interactive" stroke="#3388ff" stroke-opacity="0" stroke-width="3" stroke-linecap="round" stroke-linejoin="round" fill="#eee" fill-opacity="0.5" fill-rule="evenodd" d="M713 306L715 306L710 305L708 301L703 306L700 307L702 309L701 311L698 312L698 315L701 318L705 318L707 316L708 317L710 315L709 312L714 311L712 309L713 306z" id="北京市"/><path class="leaflet-interactive" stroke="#3388ff" stroke-opacity="0" stroke-width="3" stroke-linecap="round" stroke-linejoin="round" fill="#eee" fill-opacity="0.5" fill-rule="evenodd" d="M717 319L718 318L715 315L715 313L717 313L714 310L712 312L712 316L709 317L710 321L708 325L716 327L718 323L717 322L719 320L716 319zM717 319L717 319z" id="天津市"/><path class="leaflet-interactive" stroke="#3388ff" stroke-opacity="0" stroke-width="3" stroke-linecap="round" stroke-linejoin="round" fill="#eee" fill-opacity="0.5" fill-rule="evenodd" d="M714 306L712 308L717 313L715 313L715 315L722 324L729 318L729 315L733 313L731 307L729 307L726 304L726 302L729 299L721 298L721 290L720 291L718 289L719 288L717 284L711 286L708 292L702 292L697 294L697 296L694 295L694 292L692 290L690 290L688 296L685 297L685 301L689 309L691 309L686 312L690 314L690 320L686 322L683 327L683 331L686 333L687 336L684 342L685 343L682 347L685 350L694 353L696 351L697 352L697 348L701 344L702 340L705 338L706 339L709 335L713 335L718 330L715 327L711 327L708 325L710 321L708 316L706 318L700 318L698 316L698 313L702 309L700 307L703 306L708 301L710 305L714 306zM712 312L709 313L710 316L712 316L712 312zM717 319L716 319zM725 321L725 322z" id="河北省"/><path class="leaflet-interactive" stroke="#3388ff" stroke-opacity="0" stroke-width="3" stroke-linecap="round" stroke-linejoin="round" fill="#eee" fill-opacity="0.5" fill-rule="evenodd" d="M657 367L667 365L670 362L671 363L671 361L677 361L683 357L684 350L682 346L685 344L684 343L687 338L686 333L683 330L685 326L684 323L689 322L691 318L690 315L686 312L691 309L689 309L688 305L683 309L680 308L677 309L676 311L674 309L669 317L667 316L664 319L661 329L658 332L658 334L661 337L657 343L659 355L656 364L657 367z" id="山西省"/><path class="leaflet-interactive" stroke="#3388ff" stroke-opacity="0" stroke-width="3" stroke-linecap="round" stroke-linejoin="round" fill="#eee" fill-opacity="0.5" fill-rule="evenodd" d="M551 282L556 295L554 297L560 303L560 306L564 306L566 304L567 305L567 303L574 303L576 306L575 310L570 314L580 319L580 323L583 323L586 326L588 326L590 324L588 322L593 320L597 322L601 319L606 318L608 322L605 327L601 329L601 335L609 339L618 336L621 333L621 325L623 321L624 322L624 320L627 319L630 322L630 324L626 330L629 332L633 332L633 334L638 335L638 337L643 337L644 334L647 333L646 330L654 321L653 320L654 321L656 319L655 318L657 320L659 320L662 317L664 319L667 316L668 317L674 309L676 311L680 308L683 309L687 307L685 297L688 296L690 290L692 290L694 292L693 295L696 296L701 292L703 294L706 291L707 292L710 290L710 286L714 286L717 284L719 288L718 289L720 291L721 290L721 298L728 299L730 297L730 291L728 289L730 287L735 292L735 294L741 288L742 289L745 286L749 286L755 282L758 283L764 279L764 277L761 274L763 274L763 272L760 263L753 267L751 260L753 256L748 249L749 246L751 248L754 247L757 250L757 246L760 244L759 240L764 238L763 235L761 235L762 236L760 238L758 237L758 235L754 231L755 228L763 223L769 216L771 222L773 210L777 208L776 200L783 185L777 177L774 179L774 181L759 181L756 174L757 169L755 169L752 166L749 169L745 165L749 159L748 156L743 155L735 163L735 165L740 165L741 172L734 179L735 180L730 187L731 188L728 194L730 194L729 197L716 204L708 200L701 216L701 220L699 221L699 224L702 227L705 224L714 227L718 222L723 223L733 233L734 238L732 240L727 239L725 237L717 240L715 239L713 242L709 242L704 248L705 249L700 253L692 253L687 259L683 261L677 260L674 257L669 257L666 265L670 273L662 277L657 283L645 287L634 286L625 289L614 296L611 295L610 293L599 292L595 289L593 290L586 285L565 285L552 283z" id="内蒙古自治区"/><path class="leaflet-interactive" stroke="#3388ff" stroke-opacity="0" stroke-width="3" stroke-linecap="round" stroke-linejoin="round" fill="#eee" fill-opacity="0.5" fill-rule="evenodd" d="M763 315L767 315L774 307L775 308L781 303L781 299L778 296L779 295L777 295L777 291L779 289L778 290L776 288L776 284L773 279L770 282L770 279L765 275L763 280L760 281L761 282L754 282L754 284L752 283L749 286L745 286L735 294L735 292L730 287L728 289L730 291L730 296L726 301L726 304L729 307L731 307L733 313L739 310L739 308L744 303L749 303L753 307L750 310L751 311L746 315L747 316L744 318L748 320L748 322L747 321L747 323L746 322L744 326L749 323L750 324L749 323L755 318L763 315zM756 320L756 320zM753 321L753 321zM756 320L757 321L756 320zM757 323L756 322L757 323zM759 317L758 318L759 317zM755 320L755 321zM741 307L741 307zM759 318L759 318zM760 323L760 323zM764 315L765 315z" id="辽宁省"/><path class="leaflet-interactive" stroke="#3388ff" stroke-opacity="0" stroke-width="3" stroke-linecap="round" stroke-linejoin="round" fill="#eee" fill-opacity="0.5" fill-rule="evenodd" d="M812 287L814 280L816 280L820 286L820 284L818 283L822 282L825 279L826 276L818 273L818 269L816 271L814 269L810 271L809 274L807 274L803 268L802 263L799 266L800 267L797 268L794 262L791 263L792 258L790 256L782 256L780 252L776 254L774 252L771 253L767 249L767 245L765 243L761 243L757 246L757 250L754 247L751 248L749 246L748 249L751 251L753 256L751 258L753 266L755 267L760 263L763 272L763 274L761 274L763 276L765 275L768 278L769 277L769 280L771 282L773 279L774 280L776 288L778 290L779 289L777 291L777 295L779 295L778 296L781 299L781 303L784 302L790 293L794 297L801 298L799 291L807 291L810 286L812 287z" id="吉林省"/><path class="leaflet-interactive" stroke="#3388ff" stroke-opacity="0" stroke-width="3" stroke-linecap="round" stroke-linejoin="round" fill="#eee" fill-opacity="0.5" fill-rule="evenodd" d="M763 244L767 244L767 248L771 253L774 252L776 254L780 252L782 256L790 256L792 258L791 263L794 262L798 268L800 268L799 265L802 263L803 268L807 274L809 274L809 272L814 269L816 271L818 269L818 273L824 276L825 269L823 260L830 255L839 258L840 257L840 253L847 242L846 241L849 233L848 232L853 227L853 219L856 217L840 221L837 224L836 223L837 224L835 226L824 227L820 222L822 220L819 215L821 212L817 212L810 205L807 206L804 203L798 204L796 202L796 195L794 195L793 188L790 185L791 182L789 182L790 179L788 178L789 177L786 173L787 172L783 164L784 163L780 161L781 160L779 158L773 158L763 152L748 154L747 155L749 159L744 165L747 166L748 169L750 169L753 166L757 170L756 173L759 182L774 181L776 177L783 184L781 192L776 199L777 207L773 209L771 222L769 216L758 227L755 228L754 231L759 238L761 236L762 237L762 235L763 237L764 236L764 238L759 239L760 243L763 244z" id="黑龙江省"/><path class="leaflet-interactive" stroke="#3388ff" stroke-opacity="0" stroke-width="3" stroke-linecap="round" stroke-linejoin="round" fill="#eee" fill-opacity="0.5" fill-rule="evenodd" d="M742 401L746 405L751 402L746 397L744 397L742 401zM750 396L745 393L744 394L747 397L751 397zM749 399L747 397L749 399zM749 398L752 399L749 398zM748 397L747 397zM750 400L750 399zM750 399L750 399z" id="上海市"/><path class="leaflet-interactive" stroke="#3388ff" stroke-opacity="0" stroke-width="3" stroke-linecap="round" stroke-linejoin="round" fill="#eee" fill-opacity="0.5" fill-rule="evenodd" d="M713 368L712 369L709 364L705 366L712 372L715 372L717 376L719 376L718 381L720 381L722 385L726 383L728 385L727 388L723 386L724 389L721 393L723 395L724 394L724 396L726 396L724 399L730 399L729 400L733 400L739 404L746 396L744 395L745 393L750 396L750 393L742 385L738 372L730 366L728 362L725 363L722 369L720 369L718 366L716 368L713 368z" id="江苏省"/><path class="leaflet-interactive" stroke="#3388ff" stroke-opacity="0" stroke-width="3" stroke-linecap="round" stroke-linejoin="round" fill="#eee" fill-opacity="0.5" fill-rule="evenodd" d="M722 427L725 428L725 434L728 435L732 432L733 435L737 434L739 437L740 433L744 431L743 428L744 429L748 427L748 419L751 418L749 414L752 412L748 411L743 406L745 404L742 401L739 404L733 400L731 404L728 405L730 407L727 408L725 410L726 411L719 418L719 420L722 423L722 426zM752 411L753 412L753 410L751 409L752 411zM752 409L752 410zM753 414L753 414zM754 404L754 404zM752 408L753 409L752 408zM753 409L753 408zM751 419L751 418zM754 412L754 412zM754 407L754 407zM749 422L750 422zM753 412L753 413zM749 419L749 419zM744 433L744 433zM750 404L751 405L750 404zM750 425L750 425zM752 414L751 413L752 414zM754 411L754 412zM755 405L755 405zM750 425L750 425zM751 409L751 409zM754 411L754 411zM749 411L750 410L749 411zM743 434L743 434zM750 418L751 419L750 418zM751 413L751 414zM750 410L750 410zM750 408L750 408zM752 411L752 411zM753 414L753 413zM744 431L744 431zM757 410L757 410zM753 408L753 408zM753 412L753 412zM757 404L757 404zM743 430L744 429L743 430zM744 430L745 429L744 430zM754 411L754 411zM757 404L757 404zM752 411L753 411zM751 411L751 411zM743 430L743 429zM754 412L754 412zM752 411L752 411z" id="浙江省"/><path class="leaflet-interactive" stroke="#3388ff" stroke-opacity="0" stroke-width="3" stroke-linecap="round" stroke-linejoin="round" fill="#eee" fill-opacity="0.5" fill-rule="evenodd" d="M707 373L708 374L704 376L700 372L700 377L698 377L697 380L693 382L696 385L696 387L702 387L702 394L700 394L697 397L701 401L703 401L700 405L704 413L707 412L707 410L710 412L708 414L709 415L712 412L714 412L715 415L722 416L726 411L725 410L730 407L728 405L730 405L732 401L729 400L730 399L724 399L726 397L722 393L724 389L723 386L727 388L728 385L726 383L722 385L720 381L718 381L720 376L716 376L717 374L715 372L711 372L706 367L704 368L705 370L707 370L707 373zM725 397L726 397zM708 414L708 414zM698 388L698 388z" id="安徽省"/><path class="leaflet-interactive" stroke="#3388ff" stroke-opacity="0" stroke-width="3" stroke-linecap="round" stroke-linejoin="round" fill="#eee" fill-opacity="0.5" fill-rule="evenodd" d="M727 457L726 454L728 456L727 455L730 454L728 454L728 452L734 452L730 450L732 450L732 446L734 444L732 442L734 442L734 440L735 441L733 443L736 442L735 441L738 438L738 436L733 436L731 432L729 435L726 434L724 426L721 427L721 429L717 431L714 430L711 433L712 435L707 440L708 443L706 447L703 449L701 457L705 457L707 459L706 460L709 459L710 466L713 469L720 463L719 460L723 461L725 459L724 458L727 457zM722 461L721 462L722 461zM730 455L731 454L730 455zM731 451L731 451zM734 446L734 445zM720 462L720 461zM734 441L734 441zM720 461L719 460L720 461zM734 446L734 446zM732 446L731 446zM735 443L735 443zM732 451L732 450zM733 442L733 442zM736 442L736 442zM737 439L737 439zM736 440L736 440zM732 442L733 441L732 442z" id="福建省"/><path class="leaflet-interactive" stroke="#3388ff" stroke-opacity="0" stroke-width="3" stroke-linecap="round" stroke-linejoin="round" fill="#eee" fill-opacity="0.5" fill-rule="evenodd" d="M720 417L719 415L715 415L714 412L712 412L709 415L708 414L710 412L708 410L702 414L698 412L698 414L696 414L693 417L689 417L686 420L688 422L688 427L684 431L683 435L685 435L684 438L687 443L686 445L688 445L686 453L692 454L688 459L690 461L697 458L700 460L701 459L703 450L708 443L707 440L712 436L711 433L714 430L717 431L722 428L722 424L719 420L720 417z" id="江西省"/><path class="leaflet-interactive" stroke="#3388ff" stroke-opacity="0" stroke-width="3" stroke-linecap="round" stroke-linejoin="round" fill="#eee" fill-opacity="0.5" fill-rule="evenodd" d="M705 367L706 364L709 363L712 368L716 368L718 366L721 369L723 366L725 366L724 365L726 363L730 362L730 360L737 353L737 351L737 353L740 352L741 349L742 350L741 347L742 348L750 344L753 345L756 339L746 339L746 337L740 335L736 336L737 337L733 340L733 342L729 342L726 338L729 337L729 335L726 332L723 333L718 330L713 335L709 335L706 338L705 337L705 339L704 338L705 339L702 340L702 342L697 347L697 356L703 352L703 354L701 354L693 362L700 368L705 367zM740 334L741 334zM740 333L740 333zM743 349L742 349zM741 332L741 331zM742 330L742 329zM736 356L736 355zM740 334L739 333zM741 330L741 330zM747 337L747 337zM747 337L747 337zM747 337L747 337zM698 354L698 354z" id="山东省"/><path class="leaflet-interactive" stroke="#3388ff" stroke-opacity="0" stroke-width="3" stroke-linecap="round" stroke-linejoin="round" fill="#eee" fill-opacity="0.5" fill-rule="evenodd" d="M676 389L679 388L682 390L684 388L686 395L691 395L692 397L695 396L697 398L698 395L702 394L702 388L698 388L696 384L693 383L697 381L700 372L704 376L708 374L704 367L698 367L698 365L696 365L695 363L694 364L693 361L703 353L698 354L697 356L698 353L696 351L694 353L685 350L683 357L678 361L671 360L670 363L657 368L664 384L671 389L675 389zM684 389L684 390z" id="河南省"/><path class="leaflet-interactive" stroke="#3388ff" stroke-opacity="0" stroke-width="3" stroke-linecap="round" stroke-linejoin="round" fill="#eee" fill-opacity="0.5" fill-rule="evenodd" d="M663 381L650 381L653 384L655 384L654 387L651 386L650 390L651 395L655 398L656 402L649 406L641 406L643 409L641 413L643 413L646 416L645 417L647 416L648 419L649 416L651 414L652 415L652 413L659 414L659 410L669 412L672 415L676 415L678 413L679 416L683 412L683 418L685 420L688 417L694 417L693 416L699 412L702 414L703 413L703 409L701 407L701 403L703 401L699 400L695 396L692 397L691 394L686 395L684 389L671 389L668 386L667 387L663 381zM647 406L647 406zM663 381L663 381zM676 389L676 389zM677 413L678 413z" id="湖北省"/><path class="leaflet-interactive" stroke="#3388ff" stroke-opacity="0" stroke-width="3" stroke-linecap="round" stroke-linejoin="round" fill="#eee" fill-opacity="0.5" fill-rule="evenodd" d="M670 459L672 455L676 455L676 457L678 457L677 454L679 452L683 454L686 451L686 447L688 446L686 446L687 443L685 441L685 435L683 435L683 433L684 430L687 429L686 428L688 426L688 422L685 419L684 420L683 413L679 416L678 413L676 415L672 415L669 412L658 410L658 414L650 414L648 418L648 429L650 433L648 435L647 434L647 436L644 438L649 437L651 439L651 441L649 441L648 444L653 449L653 446L657 448L659 445L665 445L664 448L666 448L662 457L666 455L666 459L670 458zM650 441L650 441z" id="湖南省"/><path class="leaflet-interactive" stroke="#3388ff" stroke-opacity="0" stroke-width="3" stroke-linecap="round" stroke-linejoin="round" fill="#eee" fill-opacity="0.5" fill-rule="evenodd" d="M683 481L684 477L690 479L691 476L693 478L696 475L698 477L700 475L706 475L709 472L709 470L712 469L709 459L706 460L707 459L705 457L701 457L701 460L699 460L698 458L690 461L688 459L692 455L691 453L686 454L686 452L680 452L678 454L677 453L679 455L677 457L675 455L671 456L672 457L670 459L670 465L665 470L666 473L663 477L660 478L659 481L657 481L656 484L655 483L653 486L652 485L653 488L651 492L653 498L657 498L659 496L656 493L658 489L670 486L672 484L680 484L683 481zM711 470L711 470zM677 485L676 486L677 485zM674 486L675 486zM688 482L688 482zM658 490L659 491L659 489L658 490zM674 486L674 485zM658 491L656 491L659 491zM684 483L684 483zM684 483L684 483zM679 484L679 484zM685 479L685 479zM688 483L688 483zM688 483L687 483zM709 493L710 494L708 495L710 495L709 493zM678 484L678 484zM657 494L657 494zM659 492L659 492zM659 497L659 497zM702 490L703 491L702 490zM702 491L702 491zM701 476L701 476zM701 476L701 476z" id="广东省"/><path class="leaflet-interactive" stroke="#3388ff" stroke-opacity="0" stroke-width="3" stroke-linecap="round" stroke-linejoin="round" fill="#eee" fill-opacity="0.5" fill-rule="evenodd" d="M650 447L649 450L646 449L645 450L647 450L645 452L644 451L643 454L642 452L640 452L639 455L637 455L631 451L629 455L622 459L615 456L612 460L610 460L617 465L622 464L624 466L623 469L621 469L618 472L621 475L626 474L628 476L626 480L628 481L627 483L638 487L643 485L646 486L646 488L648 488L651 486L652 487L652 485L653 486L656 483L657 484L657 482L660 481L660 479L666 474L666 468L670 466L669 464L671 462L669 458L666 460L665 455L663 457L662 456L666 449L664 449L664 445L659 445L656 448L654 446L653 449L650 447zM615 457L615 457zM647 491L647 491z" id="广西壮族自治区"/><path class="leaflet-interactive" stroke="#3388ff" stroke-opacity="0" stroke-width="3" stroke-linecap="round" stroke-linejoin="round" fill="#eee" fill-opacity="0.5" fill-rule="evenodd" d="M655 500L648 501L643 506L643 512L645 514L651 516L659 510L659 507L663 503L660 499L655 499zM672 633L672 633zM680 599L681 598zM670 633L670 633zM666 525L667 524L666 525zM716 541L716 540zM672 632L672 632zM668 532L669 532zM667 532L668 532zM685 603L689 603L691 601L690 600L686 603zM686 592L687 593L686 592zM686 593L686 593zM670 531L670 531zM668 530L669 529L668 530zM672 593L672 593zM685 605L685 605zM688 593L688 593zM672 525L673 526L672 525zM692 580L692 580zM701 586L701 585zM691 584L692 583zM684 603L685 602zM650 605L652 603L654 604L650 604zM705 592L705 592zM674 534L675 533L674 534zM675 593L675 593zM690 576L691 576zM674 531L674 531zM706 580L707 580zM673 526L673 526zM666 530L667 530zM698 584L699 584zM692 598L692 598zM690 599L691 598zM696 596L697 597L696 596zM685 600L686 599zM698 588L698 588zM706 590L706 590zM683 592L684 591L683 592zM692 575L693 574L692 575zM691 572L691 571zM694 576L694 576zM667 530L667 530zM686 592L686 593zM654 601L654 600zM708 571L709 572L708 571zM668 529L668 529zM674 530L675 529L674 530zM668 533L669 533zM685 583L685 582zM693 598L693 598zM707 585L707 586zM697 582L697 582zM709 579L709 579zM692 532L692 532zM702 589L702 589zM684 590L684 590zM692 603L692 603zM690 577L691 577zM717 577L717 577zM688 581L688 581zM692 571L692 571zM708 579L708 579zM658 599L659 598L658 599zM666 595L666 595zM696 595L697 595zM680 599L680 599zM687 576L687 576zM713 581L713 580zM688 533L688 533zM659 599L659 599zM698 596L699 595zM667 603L667 603zM667 594L668 594zM658 601L658 601zM673 592L673 592zM706 585L706 585zM670 599L670 599zM690 537L690 537zM694 574L695 574zM687 534L687 534zM703 583L703 582zM713 578L713 577zM693 606L693 606zM677 592L677 592zM668 602L668 602zM672 593L672 593zM674 617L675 617zM691 593L691 592zM693 600L693 599zM678 596L678 596zM683 608L683 608zM708 531L708 531zM713 583L713 582zM678 504L678 504zM690 533L690 533zM685 507L685 507zM675 623L676 623zM667 600L667 600zM672 592L673 592zM677 601L678 601zM675 619L675 619zM674 619L674 618zM697 551L697 551zM683 581L683 581zM685 538L685 538zM678 624L678 624zM675 623L675 623zM673 619L673 619zM672 527L672 527zM672 536L672 536zM675 621L675 621zM674 618L674 618zM680 613L680 613zM704 587L704 587zM694 604L694 603zM667 601L667 601zM686 535L686 535zM694 533L694 534zM708 591L708 591zM675 530L676 530zM664 501L664 501zM700 580L701 580zM712 577L712 578zM676 531L676 531zM701 579L701 579zM674 587L675 587zM691 537L691 537zM713 574L713 575zM716 575L716 575zM688 588L688 588zM692 585L692 586zM675 616L675 616z" id="海南省"/><path class="leaflet-interactive" stroke="#3388ff" stroke-opacity="0" stroke-width="3" stroke-linecap="round" stroke-linejoin="round" fill="#eee" fill-opacity="0.5" fill-rule="evenodd" d="M625 425L626 422L627 425L631 421L632 422L634 418L636 418L637 421L641 419L641 423L643 423L643 425L646 428L649 424L649 420L647 416L645 416L645 414L641 413L643 409L641 407L643 407L644 405L647 406L655 403L656 400L654 397L652 395L648 395L646 392L642 390L642 392L640 392L642 396L638 400L639 399L637 404L633 404L634 405L630 411L628 411L627 408L624 409L620 407L620 409L618 409L620 411L617 417L620 418L620 420L622 420L625 424zM647 405L647 406zM619 410L619 410zM647 406L647 406zM630 411L630 411z" id="重庆市"/><path class="leaflet-interactive" stroke="#3388ff" stroke-opacity="0" stroke-width="3" stroke-linecap="round" stroke-linejoin="round" fill="#eee" fill-opacity="0.5" fill-rule="evenodd" d="M583 437L588 447L597 444L597 436L602 431L602 427L603 428L605 426L604 425L608 423L608 427L610 427L608 429L610 431L616 429L617 432L624 432L624 428L620 426L619 427L619 425L622 422L625 425L624 421L620 421L620 419L616 415L620 412L619 409L618 410L621 407L624 409L627 408L627 410L630 411L634 404L638 403L638 399L642 396L640 392L642 392L642 390L638 390L635 388L634 389L634 387L631 388L630 385L623 386L623 384L621 384L619 386L618 383L617 386L611 386L608 383L609 380L607 376L600 375L597 370L592 373L594 377L589 382L588 377L587 382L583 380L584 385L578 387L576 385L575 386L573 382L572 385L565 382L561 372L555 372L553 376L556 379L553 381L554 382L552 384L560 390L564 398L562 400L565 404L567 425L569 428L569 424L571 422L575 426L574 429L577 432L579 430L583 437zM624 409L624 409zM630 410L630 410zM618 409L618 409z" id="四川省"/><path class="leaflet-interactive" stroke="#3388ff" stroke-opacity="0" stroke-width="3" stroke-linecap="round" stroke-linejoin="round" fill="#eee" fill-opacity="0.5" fill-rule="evenodd" d="M648 425L647 428L645 428L644 425L643 426L643 424L641 423L641 419L637 421L637 419L634 418L633 421L631 421L627 425L626 422L625 425L622 422L619 425L619 427L620 426L624 428L624 431L618 431L615 435L612 436L609 434L607 436L605 434L603 438L604 443L611 442L608 451L611 454L613 454L610 458L612 460L616 456L622 460L624 458L623 457L629 455L631 451L633 452L633 454L638 455L640 453L639 452L643 453L643 451L645 452L647 450L645 450L646 449L649 450L650 445L648 445L648 441L650 441L650 437L645 438L647 436L646 435L650 433L648 425zM650 440L650 440zM650 441L651 441z" id="贵州省"/><path class="leaflet-interactive" stroke="#3388ff" stroke-opacity="0" stroke-width="3" stroke-linecap="round" stroke-linejoin="round" fill="#eee" fill-opacity="0.5" fill-rule="evenodd" d="M616 432L614 428L613 430L610 431L608 429L610 427L608 427L609 424L605 424L605 426L603 428L602 427L601 432L597 436L598 443L595 446L595 444L589 447L582 437L580 433L581 432L579 430L577 432L574 429L575 426L571 422L569 424L569 428L567 426L567 418L565 418L565 422L563 420L562 423L564 426L562 428L560 426L559 427L560 434L563 433L564 436L564 446L562 446L563 448L555 456L556 457L554 461L556 463L554 465L555 466L559 464L565 464L563 466L565 469L564 470L566 473L570 473L567 481L572 482L576 487L580 487L582 485L584 487L583 488L587 490L588 485L586 480L588 478L591 479L594 476L598 479L601 476L605 478L608 475L609 477L613 475L612 474L615 471L618 472L621 469L623 469L624 466L622 464L617 465L614 461L610 461L612 456L612 454L609 451L611 442L609 441L605 443L603 440L605 434L607 436L609 434L613 436L616 433z" id="云南省"/><path class="leaflet-interactive" stroke="#3388ff" stroke-opacity="0" stroke-width="3" stroke-linecap="round" stroke-linejoin="round" fill="#eee" fill-opacity="0.5" fill-rule="evenodd" d="M491 352L482 349L472 349L464 351L461 356L460 355L458 357L455 355L446 360L437 359L436 356L432 356L432 358L430 358L428 361L416 359L416 361L414 363L413 362L412 367L410 369L406 369L402 373L402 377L407 384L406 389L404 389L403 386L400 387L400 391L403 393L403 399L406 402L409 401L414 406L415 405L419 407L423 411L425 407L430 408L442 419L444 417L447 418L446 419L451 424L454 423L456 427L459 426L461 430L463 428L463 430L467 428L470 431L478 431L480 429L484 429L483 434L485 436L492 427L500 429L502 431L504 429L506 433L510 435L511 440L522 439L528 433L533 432L536 430L536 428L539 427L543 427L550 431L553 429L552 428L554 424L559 428L559 426L563 428L563 420L565 422L565 418L567 418L565 409L566 408L564 401L562 399L565 398L561 394L559 388L552 387L553 390L552 389L551 392L547 392L548 395L544 393L543 396L541 394L538 395L536 393L537 390L534 390L535 389L530 386L522 388L517 385L511 385L506 382L500 382L496 380L490 373L492 371L492 364L490 364L489 361L492 355L488 353L491 352z" id="西藏自治区"/><path class="leaflet-interactive" stroke="#3388ff" stroke-opacity="0" stroke-width="3" stroke-linecap="round" stroke-linejoin="round" fill="#eee" fill-opacity="0.5" fill-rule="evenodd" d="M657 367L656 364L659 357L657 343L661 337L658 331L662 327L662 323L664 320L663 317L659 320L655 318L656 319L654 321L653 320L654 321L647 328L647 333L645 333L643 337L639 337L636 334L632 338L632 344L639 348L640 347L643 350L643 360L636 360L636 364L626 362L627 365L625 367L628 370L626 370L627 372L625 374L627 377L621 377L620 380L622 381L620 384L618 384L622 384L624 386L630 385L631 388L634 387L634 389L635 388L638 391L641 390L651 395L650 388L652 386L656 386L653 383L652 384L652 382L650 381L659 380L660 382L662 380L657 367zM662 378L662 378zM623 385L623 385z" id="陕西省"/><path class="leaflet-interactive" stroke="#3388ff" stroke-opacity="0" stroke-width="3" stroke-linecap="round" stroke-linejoin="round" fill="#eee" fill-opacity="0.5" fill-rule="evenodd" d="M626 356L625 361L621 359L622 358L620 358L617 355L617 345L610 339L605 338L603 335L601 335L601 329L605 327L608 322L606 318L601 319L598 322L593 320L590 321L590 324L588 326L581 323L580 319L578 319L572 314L569 314L574 310L576 306L575 303L567 303L567 305L566 304L563 306L563 304L560 306L560 303L557 301L555 297L555 291L551 282L543 284L541 286L543 289L542 292L536 295L533 294L525 301L523 305L517 306L515 316L512 320L513 323L515 321L519 321L519 324L523 324L525 326L528 325L530 329L539 329L543 332L545 330L547 331L547 329L550 326L550 321L559 325L560 322L562 324L564 322L567 323L566 324L573 330L575 331L575 328L578 331L579 330L583 335L591 337L598 353L589 365L589 367L592 370L588 372L581 369L580 370L583 376L588 378L589 377L589 381L592 380L591 379L593 379L594 377L591 373L593 373L596 370L599 372L600 375L607 376L609 380L608 383L611 386L617 386L618 383L621 383L621 377L627 377L626 370L628 370L625 367L627 365L626 362L635 364L637 363L635 361L636 360L642 361L642 355L644 353L643 349L634 345L631 342L627 342L627 346L625 348L626 351L630 353L629 356L627 356zM622 358L623 358zM596 350L597 350zM623 359L623 359zM626 356L626 356z" id="甘肃省"/><path class="leaflet-interactive" stroke="#3388ff" stroke-opacity="0" stroke-width="3" stroke-linecap="round" stroke-linejoin="round" fill="#eee" fill-opacity="0.5" fill-rule="evenodd" d="M596 350L596 346L590 336L589 337L587 335L583 335L581 331L580 332L575 328L575 330L573 330L565 322L563 322L562 324L560 322L558 325L553 321L549 321L550 326L547 329L547 331L545 330L543 332L539 329L530 330L528 325L525 326L523 324L519 324L519 322L516 321L504 326L499 326L494 329L495 331L498 330L497 336L504 342L499 345L499 347L502 348L502 351L500 353L494 351L492 353L488 353L492 355L489 360L489 362L492 365L492 371L490 373L496 380L500 382L503 381L511 385L520 386L522 388L530 386L537 391L536 393L538 395L541 394L543 396L544 393L548 395L547 392L548 393L551 392L552 389L553 390L552 387L554 387L553 382L555 379L553 375L556 371L561 373L564 380L568 384L571 385L573 383L575 385L574 386L577 385L579 387L584 385L583 380L586 380L587 382L588 378L584 376L580 371L582 369L587 372L592 370L589 367L589 365L593 361L592 360L596 358L595 356L598 353L597 350z" id="青海省"/><path class="leaflet-interactive" stroke="#3388ff" stroke-opacity="0" stroke-width="3" stroke-linecap="round" stroke-linejoin="round" fill="#eee" fill-opacity="0.5" fill-rule="evenodd" d="M632 342L632 338L635 335L632 332L626 330L630 323L628 319L624 320L624 322L623 321L621 325L621 333L619 336L608 339L610 339L617 346L616 347L618 351L618 356L620 356L620 358L622 358L625 361L625 356L629 356L630 353L626 350L626 344L628 342L632 342zM622 358L622 359zM623 359L623 359z" id="宁夏回族自治区"/><path class="leaflet-interactive" stroke="#3388ff" stroke-opacity="0" stroke-width="3" stroke-linecap="round" stroke-linejoin="round" fill="#eee" fill-opacity="0.5" fill-rule="evenodd" d="M545 283L541 278L538 269L536 269L537 266L533 266L521 258L511 258L505 256L504 257L502 255L501 256L499 251L502 246L500 243L502 239L501 235L499 235L495 226L489 222L486 223L482 221L482 219L477 215L478 214L475 213L475 208L473 210L468 209L468 213L463 218L461 217L457 221L459 230L457 234L453 236L444 235L437 232L431 250L431 252L434 254L433 256L428 255L427 253L425 255L418 257L417 256L412 259L416 262L416 268L419 275L419 278L416 280L417 281L414 284L415 289L410 293L398 298L397 300L395 300L395 302L388 302L383 309L380 308L378 310L378 306L374 308L371 307L372 309L370 309L367 312L366 311L363 314L364 317L361 318L362 323L363 322L362 325L365 328L366 326L371 328L373 336L372 337L374 339L372 341L368 341L379 346L381 348L380 353L383 355L384 354L392 359L397 358L397 362L399 364L398 366L404 370L412 368L413 363L416 361L416 359L428 361L433 356L435 356L438 359L443 360L455 355L457 357L460 356L465 351L469 351L472 349L482 349L492 353L494 351L500 353L502 349L499 346L504 342L498 336L498 330L495 331L494 328L512 323L517 306L523 305L527 299L533 294L535 294L536 296L538 293L540 293L543 289L541 286L543 284z" id="新疆维吾尔自治区"/><path class="leaflet-interactive" stroke="#3388ff" stroke-opacity="0" stroke-width="3" stroke-linecap="round" stroke-linejoin="round" fill="#eee" fill-opacity="0.5" fill-rule="evenodd" d="M738 479L741 484L742 478L746 473L750 461L750 455L744 455L739 461L737 467L735 468L737 478zM771 448L771 448zM762 450L763 449L762 450zM732 469L731 470zM764 448L764 448zM731 468L730 469L731 468zM731 471L731 471zM731 468L731 468zM751 451L751 451zM746 477L747 477zM747 482L747 482zM751 452L752 452zM730 472L730 472zM737 480L738 480z" id="台湾省"/><path class="leaflet-interactive" stroke="#3388ff" stroke-opacity="0" stroke-width="3" stroke-linecap="round" stroke-linejoin="round" fill="#eee" fill-opacity="0.5" fill-rule="evenodd" d="M687 478L687 480L685 480L686 481L690 479L687 478zM687 481L688 481zM689 479L689 479zM689 479L689 479zM689 479L689 479zM689 480L689 480zM689 479L689 479zM689 480L689 480zM689 480L689 480z" id="香港特别行政区"/><path class="leaflet-interactive" stroke="#3388ff" stroke-opacity="0" stroke-width="3" stroke-linecap="round" stroke-linejoin="round" fill="#eee" fill-opacity="0.5" fill-rule="evenodd" d="M683 482L683 481zM683 481L683 481z" id="澳门特别行政区"/><path class="leaflet-interactive" stroke="#3388ff" stroke-opacity="0" stroke-width="3" stroke-linecap="round" stroke-linejoin="round" fill="#eee" fill-opacity="0.5" fill-rule="evenodd" d="M755 470L757 460L755 470zM744 493L750 485L744 493zM730 517L735 508L730 517zM727 542L727 533L727 542zM724 574L723 576L726 567L725 570zM699 607L704 600L699 607zM673 636L669 637L677 634L674 635zM640 615L641 616L640 608L640 615zM655 572L657 569L657 565L656 571zM653 540L649 532L652 538z" id="100000_JD"/></g></svg>